<?xml version="1.0" standalone="no"?>
<!DOCTYPE svg PUBLIC "-//W3C//DTD SVG 20010904//EN"
 "http://www.w3.org/TR/2001/REC-SVG-20010904/DTD/svg10.dtd">
<svg version="1.0" xmlns="http://www.w3.org/2000/svg"
 width="300.000000pt" height="300.000000pt" viewBox="0 0 300.000000 300.000000"
 preserveAspectRatio="xMidYMid meet">
<metadata>
Created by potrace 1.10, written by Peter Selinger 2001-2011
</metadata>
<g transform="translate(0.000000,300.000000) scale(0.100000,-0.100000)"
fill="#000000" stroke="none">
<path d="M1320 2456 c-178 -40 -323 -118 -446 -241 -256 -255 -325 -658 -168
-981 l38 -77 -76 -228 c-42 -126 -73 -229 -68 -229 4 0 112 33 239 74 l233 74
71 -33 c122 -56 194 -70 357 -69 128 1 156 4 233 27 306 93 527 319 608 622
30 112 30 307 0 420 -86 326 -344 571 -674 639 -89 19 -267 20 -347 2z m405
-160 c112 -38 208 -98 290 -181 352 -359 252 -942 -200 -1160 -124 -60 -219
-79 -359 -72 -123 6 -201 26 -305 80 l-65 34 -135 -43 c-74 -24 -137 -42 -138
-40 -2 1 17 62 42 135 l44 132 -34 54 c-117 182 -137 434 -51 643 55 137 173
274 301 351 177 107 413 132 610 67z"/>
<path d="M1148 1980 c-15 -11 -38 -43 -52 -72 -34 -68 -34 -141 -2 -220 52
-127 215 -312 340 -387 31 -19 100 -49 154 -68 82 -29 107 -33 161 -30 101 8
174 69 186 158 l7 45 -59 31 c-80 43 -158 73 -169 65 -5 -4 -27 -28 -48 -54
-25 -31 -46 -48 -61 -48 -29 0 -101 37 -165 86 -53 40 -150 158 -150 183 0 7
13 29 30 47 46 53 46 68 -2 179 l-43 100 -51 3 c-38 2 -56 -2 -76 -18z"/>
</g>
</svg>
